<?xml version="1.0" encoding="utf-8"?><!DOCTYPE svg PUBLIC "-//W3C//DTD SVG 1.1//EN" "http://www.w3.org/Graphics/SVG/1.1/DTD/svg11.dtd"><svg version="1.1" id="Layer_1" xmlns="http://www.w3.org/2000/svg" xmlns:xlink="http://www.w3.org/1999/xlink" x="0px" y="0px" width="1024px" height="1024px" viewBox="0 0 1024 1024" enable-background="new 0 0 1024 1024" xml:space="preserve"><path fill="#2A445B" d="M1024,512c0,282.768-229.233,512-512,512C229.226,1024,0,794.768,0,512C0,229.232,229.226,0,512,0C794.767,0,1024,229.232,1024,512z"/><g><path fill="#BADCEA" d="M797.538,152.647c-1.017-27.743-39.428-50.049-86.75-50.049c-1.775,0-3.516,0.094-5.256,0.157c-9.564-17.979-31.194-30.534-56.385-30.534c-25.729,0-47.755,13.104-56.988,31.708c-4.438-0.842-9.038-1.332-13.78-1.332c-24.32,0-45.297,11.726-55.323,28.707c-33.809,9.068-56.274,25.045-56.274,43.259c0,26.096,46.085,47.608,105.635,50.761c11.048,8.702,25.938,14.073,42.371,14.073c11.889,0,22.954-2.844,32.373-7.685c18.476,4.865,40.274,7.685,63.638,7.685c66.681,0,120.73-22.914,120.73-51.171C831.529,174.399,818.565,161.856,797.538,152.647z"/><path fill="#92ACB7" d="M812.954,138.698c-1.016-27.744-39.427-50.05-86.75-50.05c-1.775,0-3.516,0.094-5.256,0.157c-9.564-17.979-31.194-30.534-56.386-30.534c-25.729,0-47.754,13.104-56.986,31.708c-4.438-0.841-9.04-1.332-13.786-1.332c-24.316,0-45.291,11.726-55.317,28.706c-33.811,9.069-56.274,25.045-56.274,43.259c0,26.097,46.084,47.608,105.635,50.762c11.048,8.701,25.939,14.072,42.371,14.072c11.889,0,22.954-2.843,32.374-7.684c18.476,4.863,40.274,7.684,63.638,7.684c66.68,0,120.729-22.914,120.729-51.171C846.945,160.45,833.982,147.906,812.954,138.698z"/></g><g><path fill="#BADCEA" d="M494.038,856.001c-1.296-31.972-50.418-57.688-110.926-57.688c-2.277,0-4.502,0.111-6.728,0.187c-12.227-20.724-39.889-35.194-72.1-35.194c-32.898,0-61.074,15.102-72.875,36.544c-5.682-0.976-11.568-1.536-17.629-1.536c-31.096,0-57.917,13.518-70.739,33.086c-43.235,10.453-71.965,28.865-71.965,49.868c0,30.068,58.937,54.862,135.084,58.5c14.131,10.026,33.167,16.223,54.178,16.223c15.206,0,29.36-3.282,41.407-8.859c23.627,5.611,51.499,8.859,81.373,8.859c85.272,0,154.388-26.413,154.388-58.979C537.506,881.069,520.934,866.609,494.038,856.001z"/><path fill="#6B7E88" d="M499.479,866.89c-1.295-31.975-50.417-57.687-110.932-57.687c-2.265,0-4.489,0.111-6.721,0.187c-12.233-20.729-39.889-35.2-72.099-35.2c-32.904,0-61.075,15.101-72.875,36.543c-5.67-0.963-11.568-1.529-17.629-1.529c-31.102,0-57.916,13.512-70.739,33.086c-43.24,10.452-71.959,28.864-71.959,49.857c0,30.078,58.932,54.878,135.077,58.505c14.131,10.032,33.174,16.222,54.179,16.222c15.211,0,29.36-3.275,41.401-8.853c23.632,5.601,51.503,8.853,81.379,8.853c85.272,0,154.393-26.412,154.393-58.978C542.953,891.959,526.376,877.501,499.479,866.89z"/></g><g><path fill="#EAEAEA" d="M125.783,435.819V315.89c0-6.406,5.711-11.635,12.688-11.635h57.186c6.983,0,13.798,5.144,15.13,11.419l17.576,82.663c21.834-6.925,40.76-12.625,52.065-16.414c473.313-158.59,639.042,77.427,639.042,77.427v0.015c52.379,31.287,75.17,67.865,75.17,86.633c0,52.525-182.148,190.359-654.137,39.096c-23.527-7.545-43.842-15.043-61.605-22.371c-47.201-15.58-199.743-57.525-199.778-90.068C79.098,461.074,98.606,448.243,125.783,435.819z"/><path fill="#EF6756" d="M34.677,529.337c-8.257,6.868-6.728,15.405,3.398,18.984l31.276,11.013c10.143,3.562,26.096,2.185,35.463-3.077l126.755-71.112c9.379-5.255,8.305-10.452-2.388-11.556l-93.944-9.662c-10.687-1.098-26.185,3.624-34.459,10.486L34.677,529.337z"/><path fill="#416074" d="M589.543,439.802c0,24.181,19.598,43.781,43.784,43.781c24.17,0,43.772-19.601,43.772-43.781c0-24.175-19.603-43.772-43.772-43.772C609.141,396.03,589.543,415.627,589.543,439.802z"/><path fill="#416074" d="M481.047,439.802c0,24.181,19.603,43.781,43.785,43.781c24.168,0,43.771-19.601,43.771-43.781c0-24.175-19.604-43.772-43.771-43.772C500.649,396.03,481.047,415.627,481.047,439.802z"/><path fill="#416074" d="M374.432,439.802c0,24.181,19.597,43.781,43.783,43.781c24.163,0,43.771-19.601,43.771-43.781c0-24.175-19.608-43.772-43.771-43.772C394.028,396.03,374.432,415.627,374.432,439.802z"/><path fill="#416074" d="M915.418,452.704c2.557,3.244,4.053,5.201,4.053,5.201l15.69,10.178c0,0-32.8,46.943-116.257,51.422c-83.457,4.467-103.801-85.373-80.152-99.865c20.363-12.482,18.582-1.458,74.057-44.267C872.568,405.238,904.767,439.836,915.418,452.704z"/><g><path fill="#FFFFFF" d="M392.633,643.322c-8,19.762,1.897,42.582,21.997,50.722l56.339,22.792c20.1,8.134,43.089-1.379,51.089-21.146c8-19.766-1.897-42.598-21.997-50.721l-56.339-22.803C423.623,614.044,400.633,623.557,392.633,643.322z"/><path fill="#416074" d="M476.966,677.46c-7.206,17.811-4.637,35.679,5.758,39.877c10.394,4.205,30.592-4.449,37.81-22.266c7.201-17.833-1.308-38.072-11.69-42.289C498.454,648.584,484.189,659.627,476.966,677.46z"/></g><path fill="#EF6756" d="M265.34,644.847c-16.672,13.852-13.589,31.09,6.866,38.295l63.106,22.231c20.444,7.194,52.648,4.414,71.562-6.202l255.76-143.486c18.902-10.61,16.73-21.108-4.828-23.328l-189.56-19.492c-21.559-2.226-52.853,7.305-69.53,21.162L265.34,644.847z"/><path fill="#416074" d="M178.928,328.117h-19.994v9.872h19.994v35.576c0,2.283-0.351,4.182-1.034,5.694c-0.659,1.571-1.563,2.832-2.727,3.784c-2.376,1.945-4.888,2.885-7.503,2.832c-1.968,0-3.686-0.49-5.151-1.441c-1.466-0.8-2.656-1.834-3.579-3.096l-8.223,5.957c3.854,5.638,9.6,8.543,17.228,8.736c5.466-0.071,10.277-1.991,14.423-5.776c4.163-3.696,6.317-8.935,6.436-15.714v-36.551v-9.872H178.928z"/></g></svg>